<svg width="24" height="24" viewBox="0 0 24 24" fill="currentColor" xmlns="http://www.w3.org/2000/svg">
<path d="M11.7 18C10.1 17.9167 8.75 17.3 7.65 16.15C6.55 15 6 13.6167 6 12C6 10.3333 6.58333 8.91667 7.75 7.75C8.91667 6.58333 10.3333 6 12 6C13.6167 6 15 6.55 16.15 7.65C17.3 8.75 17.9167 10.1 18 11.7L15.9 11.075C15.6833 10.175 15.2167 9.43767 14.5 8.863C13.7833 8.28833 12.95 8.00067 12 8C10.9 8 9.95833 8.39167 9.175 9.175C8.39167 9.95833 8 10.9 8 12C8 12.95 8.28767 13.7833 8.863 14.5C9.43833 15.2167 10.1757 15.6833 11.075 15.9L11.7 18ZM12.9 21.95C12.75 21.9833 12.6 22 12.45 22H12C10.6167 22 9.31667 21.7373 8.1 21.212C6.88334 20.6867 5.825 19.9743 4.925 19.075C4.025 18.1757 3.31267 17.1173 2.788 15.9C2.26333 14.6827 2.00067 13.3827 2 12C1.99933 10.6173 2.262 9.31733 2.788 8.1C3.314 6.88267 4.02633 5.82433 4.925 4.925C5.82367 4.02567 6.882 3.31333 8.1 2.788C9.318 2.26267 10.618 2 12 2C13.382 2 14.682 2.26267 15.9 2.788C17.118 3.31333 18.1763 4.02567 19.075 4.925C19.9737 5.82433 20.6863 6.88267 21.213 8.1C21.7397 9.31733 22.002 10.6173 22 12V12.45C22 12.6 21.9833 12.75 21.95 12.9L20 12.3V12C20 9.76667 19.225 7.875 17.675 6.325C16.125 4.775 14.2333 4 12 4C9.76667 4 7.875 4.775 6.325 6.325C4.775 7.875 4 9.76667 4 12C4 14.2333 4.775 16.125 6.325 17.675C7.875 19.225 9.76667 20 12 20H12.3L12.9 21.95ZM20.525 22.5L16.25 18.225L15 22L12 12L22 15L18.225 16.25L22.5 20.525L20.525 22.5Z" fill="currentColor"/>
</svg>
